PathFileType	4	(X/Y/Z)	36_2_rein_81_p1_0-287_filt_butterworth.trc
DataRate	CameraRate	NumFrames	NumMarkers	Units	OrigDataRate	OrigDataStartFrame	OrigNumFrames
44.0	44.0	6	27	m	44.0	143	287
Frame#	Time	RHip			RKnee			RAnkle			RBigToe			RSmallToe			RHeel			LHip			LKnee			LAnkle			LBigToe			LSmallToe			LHeel			Neck			Head			Nose			RShoulder			RElbow			RWrist			RThumb			RIndex			RPinky			LShoulder			LElbow			LWrist			LThumb			LIndex			LPinky			
		X1	Y1	Z1	X2	Y2	Z2	X3	Y3	Z3	X4	Y4	Z4	X5	Y5	Z5	X6	Y6	Z6	X7	Y7	Z7	X8	Y8	Z8	X9	Y9	Z9	X10	Y10	Z10	X11	Y11	Z11	X12	Y12	Z12	X13	Y13	Z13	X14	Y14	Z14	X15	Y15	Z15	X16	Y16	Z16	X17	Y17	Z17	X18	Y18	Z18	X19	Y19	Z19	X20	Y20	Z20	X21	Y21	Z21	X22	Y22	Z22	X23	Y23	Z23	X24	Y24	Z24	X25	Y25	Z25	X26	Y26	Z26	X27	Y27	Z27	
143	3.25	0.29251462699323993	0.6220462464562568	-0.14206014683607074	0.3292629637159197	0.5878331882358471	0.26380296068335707	0.38375818175479326	0.720565859940334	0.712608281806133	0.33007270194231964	0.5208292309745414	0.7443700153421892	0.4073207556855921	0.5488009072484088	0.7461160870956807	0.36166874015027317	0.8271781292103868	0.7783454368736316	0.07362487299085912	0.5890034940483307	-0.122845125146347	0.12024146216277279	0.6467034359014605	0.31889496041585974	0.18613855770428475	0.7165620105195103	0.7226769018824586	0.19340646499785905	0.538297212888398	0.7619644871619058	0.13614258477429753	0.5809538971485024	0.770358286414607	0.20960860511094023	0.8011389036017214	0.7976205232777425	0.18018312004923942	0.4340304067203128	-0.6384756387335577	0.2694725331576856	0.19747963337628346	-0.8838728343070228	0.2609849120246648	0.2194210779813865	-0.7053445861029645	0.3413655710736929	0.433274309311276	-0.6104503866332501	0.3936613959326417	0.42065970643795436	-0.33870564527413216	0.3069362730891189	0.27741307400975784	-0.5002257519079765	0.23460994596389353	0.20228056322027277	-0.6098138498264027	0.28440688865931607	0.17077005306585838	-0.6670364503319254	0.3011104699480446	0.19249542615285734	-0.5976042790712562	0.016645857690738987	0.38983202587644067	-0.6261315132708885	-0.05094603418744947	0.5162068697788291	-0.3186884355279551	0.05699645700705319	0.4654561514181524	-0.06998137248359769	0.14662326048165664	0.48573766258238693	0.02841772825917909	0.12183534653241987	0.43798540126682306	0.0471696568661404	0.07014002186162183	0.478321718144568	0.0613940743075644
144	3.272727272727273	0.29191140025174406	0.6211288516639972	-0.14064670583846217	0.32958102516795756	0.5881286280079157	0.26412166943446486	0.3825747696378592	0.7207229712195203	0.7127397996869963	0.32875321231352017	0.51984495849513	0.7439912791423309	0.4071296260213918	0.5486101678765136	0.746037799636716	0.3590296245154365	0.8266632832399977	0.7786470659889805	0.07518172136756021	0.5885995505127073	-0.12108546195764208	0.12009586647210269	0.646514993665617	0.3208553310158808	0.18614619654682218	0.7167602838308208	0.724163702797697	0.19340983052450525	0.5382457397206074	0.7618069911315835	0.13619309136520763	0.5810299405265055	0.770249941996193	0.20945054931271884	0.8013539224757509	0.7982063077663594	0.18158671092857243	0.4361396230116597	-0.6467892024466797	0.26224595137473583	0.1980343391964705	-0.8873928870765219	0.25236550718195067	0.20150100493924894	-0.7150462752320789	0.3420356147421219	0.43311620178612675	-0.6123507052684162	0.39476444598106963	0.42367778008745494	-0.3394223440168297	0.3080946250862767	0.27683267511203796	-0.49681041746326976	0.2438521236256431	0.20864952212440874	-0.6095195871346961	0.2852488859617818	0.14817261870350257	-0.6535665004114362	0.3007873774363563	0.15837077712758735	-0.5957219568292256	0.016356793898749996	0.38818019328258047	-0.6294998819726361	-0.057048136351058876	0.508882723073279	-0.32542219528922306	0.06399880786455893	0.4506615752845775	-0.0849924307325735	0.15748057123713705	0.47789404126866925	0.008940414584139113	0.13889331153651457	0.4388175737751011	0.042245403603014035	0.08163762824524198	0.458840900336372	0.05550055910656147
145	3.2954545454545454	0.2905169783192171	0.6196426611397611	-0.14198805245789298	0.3296047877903432	0.5881554642001978	0.2645147965392114	0.38083467014071215	0.7206254754483737	0.7130525496449464	0.32657088175384086	0.5183843792858884	0.7435077512566968	0.40563940684076805	0.5481952774622738	0.7461314281640586	0.3579605544727342	0.8279613688617264	0.7804740806615981	0.07569224780486726	0.5888039249400682	-0.12429036590607949	0.12052350125705878	0.6452959325368631	0.3218127827038414	0.18598508869024805	0.7169459383545634	0.721691533287566	0.19338273728389097	0.5383267861475818	0.7618163653661127	0.1363968900783496	0.5810265405795325	0.7691237288834292	0.20934897939722943	0.8015288799467487	0.7989682875352391	0.1811395674354474	0.4315396316991672	-0.6532935007159726	0.2532073744059581	0.19734411290829704	-0.8900916843196799	0.23919735160365324	0.18749874407245992	-0.7235750598982023	0.34395806616049185	0.43113527250704603	-0.6166544588163921	0.3959223110378875	0.4268417148386693	-0.3404909107358802	0.3099624215651752	0.2775617078404742	-0.4931229394473468	0.2540399437543581	0.21908390631388114	-0.6077899808436353	0.28530017725223306	0.1341231308370898	-0.6372299424347008	0.29739144597085665	0.13308842636298465	-0.5896302387324196	0.01575746942240227	0.3923434246896031	-0.6314466740348683	-0.06281086378227287	0.5042042492142651	-0.33390647434794285	0.0729097062326659	0.4358547658810531	-0.09990569820477806	0.16852347740776055	0.4578892452328255	-0.012174777031177999	0.15715281048945423	0.4312154067292875	0.028580202798450263	0.09295726938063409	0.4407200302531858	0.04843662345814631
146	3.3181818181818183	0.2906844607762269	0.6192950169261866	-0.14479897973205216	0.32956314894185273	0.5880726126092222	0.2645937246499837	0.37954450249882776	0.7203837607581987	0.7129111550238186	0.3251539420030509	0.5174564063631307	0.7432179088987494	0.40344106815811454	0.5477530991212721	0.7463164648972809	0.3576810996835126	0.8321802528909203	0.7831141064955873	0.07532880404873082	0.5878490104097834	-0.13168906542215314	0.12069852482584603	0.6449156722880844	0.32154199797121646	0.1857756737777995	0.7170354309593747	0.7180274136997635	0.19330976776435638	0.5383560764401555	0.7615448836945355	0.1365146117375567	0.580975839639167	0.7684225720224992	0.2094944214613635	0.8013773284853132	0.7989092002522327	0.17965966527450364	0.4313289009314849	-0.6560750891316263	0.24605743910495836	0.19756966240738283	-0.8927311144079795	0.22782565629749427	0.1855882718375653	-0.7269649132798999	0.3459204384584868	0.4302694599361276	-0.6211758504922154	0.39861485712513167	0.4357448894407036	-0.3411727299716381	0.3137389372205697	0.27819552423955635	-0.4886798153073028	0.2611509552630802	0.2184705273330701	-0.604881119352199	0.2873009186671706	0.13094658592919817	-0.6252516095340507	0.297638415394931	0.12510126415406975	-0.5764795661886517	0.014205806133071219	0.4044256267113307	-0.6324103916066631	-0.06589354619705252	0.503589014537839	-0.34154885447986816	0.08084564412790249	0.42102807911863005	-0.11591241537605115	0.17813473334129892	0.43108132705954616	-0.03275389177801142	0.17055084855965102	0.4139366752956052	0.0035256950530932244	0.10088726301313519	0.424155734457969	0.030694304366129306
147	3.340909090909091	0.2915464458363566	0.6191562859833878	-0.14854569235455006	0.3295198021990528	0.5878225038512539	0.26418414914993665	0.37894148143070144	0.7201374890649976	0.7113042333665487	0.32504475685605183	0.5175435301914378	0.7432456276928262	0.4017634339749165	0.5466100293903957	0.7460108990639172	0.35757953317329666	0.8348867764885741	0.7841720706446067	0.07478398969291579	0.5877963044021204	-0.13938579093824063	0.12072031812590911	0.645076503801175	0.32021280635048693	0.18566439246428112	0.7171388031183773	0.7169287453396691	0.19312641656970841	0.5381089789129438	0.760579362328518	0.13640934557698658	0.5810077786260425	0.7690708829732757	0.20984054709624322	0.8010968011080004	0.7970728837077253	0.18096769757503373	0.4382574814745267	-0.6557698256723179	0.2411067118313775	0.1976409462692972	-0.8967499338144327	0.21961270419959927	0.19636968834299984	-0.7261208041830227	0.3469048540423214	0.4358082291085862	-0.6228721940433968	0.4034770129117621	0.4520590008394433	-0.34230498188542197	0.320465767933581	0.2777569512442399	-0.4804351291416742	0.2660151959251894	0.20573333675202035	-0.5984731404057623	0.29243472530563575	0.13349649179840292	-0.6157075956480086	0.3014333869554202	0.1284267180025086	-0.5562861505574299	0.013358856372455076	0.41536726346244923	-0.6356451119254828	-0.0665785096641039	0.5035047759091378	-0.3480669303122077	0.08569639285545616	0.4072199933223189	-0.13179211771540658	0.18682104859769672	0.40386037946084885	-0.05606784942038505	0.17946362777527647	0.39226175355242876	-0.027616473221574577	0.11213764974552626	0.39301152855742205	-0.005179363325391924
148	3.363636363636364	0.29064329054155735	0.6159752451882949	-0.1531270521199219	0.3295010060023748	0.5874802069525766	0.2639429842510266	0.37847638431966324	0.7194988050559197	0.7087523349472981	0.32542104888675233	0.5181730291833482	0.7434315016069832	0.4003205530622571	0.5428366577342457	0.7443322337608105	0.3584161171162895	0.8321633333550111	0.7834895126885134	0.07449347701422818	0.591849919765581	-0.14308123246178656	0.12054281618943846	0.6454105258739609	0.31862868616787876	0.18563098760033056	0.7172615940629846	0.7174148077439977	0.19290679818468026	0.5377289307155547	0.7595759841402541	0.13624754418741614	0.5810633759587377	0.770014849845059	0.21014086923463848	0.8010471311984075	0.7940673353077019	0.1844734844499253	0.4428754303776401	-0.6546564199639674	0.23442562086933044	0.19507189080787385	-0.9021602291662307	0.20946511029232517	0.21581296094466312	-0.7264571139534957	0.34703819197216884	0.44739224496578794	-0.6238253870355845	0.4101436561064941	0.4703699657654718	-0.3442601597272459	0.32951451452903224	0.2760229882083586	-0.467891451019031	0.2709153206909717	0.19121987437848237	-0.5869020780096179	0.29843283452327113	0.13418571365092447	-0.6035715618659795	0.3058757710616187	0.13313355864575382	-0.5363600456485962	0.013301524940701331	0.4166295337570415	-0.6414657560696965	-0.06665409403118133	0.5029715895172105	-0.3555218949296889	0.08912706659466949	0.3976092416999658	-0.14614640058178152	0.19762291536175514	0.3786773785635906	-0.08486775501011991	0.19105244703336552	0.36814431216682963	-0.05709516636798963	0.13180620403388896	0.349172047567856	-0.04634319785970668
